<?xml version="1.0" encoding="UTF-8"?>
<svg width="49px" height="49px" viewBox="0 0 49 49" version="1.1" xmlns="http://www.w3.org/2000/svg" xmlns:xlink="http://www.w3.org/1999/xlink">
    <!-- Generator: Sketch 62 (91390) - https://sketch.com -->
    <title>Fill 3</title>
    <desc>Created with Sketch.</desc>
    <g id="Page-1" stroke="none" stroke-width="1" fill="none" fill-rule="evenodd">
        <g id="Desktop" transform="translate(-679.000000, -5985.000000)" fill="#FFFFFF">
            <g id="Design">
                <g id="Footer" transform="translate(0.000000, 5897.000000)">
                    <path d="M681.042688,88 C679.914156,88 679,88.9141562 679,90.0411562 L679,134.958844 C679,136.085844 679.914156,137 681.042688,137 L705.03125,137 L705.03125,118.625 L698.90625,118.625 L698.90625,110.96875 L705.03125,110.96875 L705.03125,104.84375 C705.03125,98.5150937 709.038531,95.4005312 714.68425,95.4005312 C717.388438,95.4005312 719.712875,95.6026563 720.389688,95.6914688 L720.389688,102.306469 L716.474281,102.308 C713.404125,102.308 712.6875,103.767281 712.6875,105.907969 L712.6875,110.96875 L720.34375,110.96875 L718.8125,118.625 L712.6875,118.625 L712.81,137 L725.958844,137 C727.085844,137 728,136.085844 728,134.958844 L728,90.0411562 C728,88.9141562 727.085844,88 725.958844,88 L681.042688,88 Z" id="Fill-3"></path>
                </g>
            </g>
        </g>
    </g>
</svg>