<?xml version="1.0" encoding="UTF-8"?>
<svg width="49px" height="49px" viewBox="0 0 49 49" version="1.1" xmlns="http://www.w3.org/2000/svg" xmlns:xlink="http://www.w3.org/1999/xlink">
    <!-- Generator: Sketch 62 (91390) - https://sketch.com -->
    <title>Fill 23</title>
    <desc>Created with Sketch.</desc>
    <g id="Page-1" stroke="none" stroke-width="1" fill="none" fill-rule="evenodd">
        <g id="Desktop" transform="translate(-933.000000, -5985.000000)" fill="#FFFFFF">
            <g id="Design">
                <g id="Footer" transform="translate(0.000000, 5897.000000)">
                    <path d="M976.461538,132 L939.538462,132 C938.689231,132 938,131.328 938,130.5 L938,108 L944.153846,108 C943.352308,109.125 943.081538,111.2235 943.081538,112.5555 C943.081538,120.588 949.8,127.1235 958.056923,127.1235 C966.315385,127.1235 973.033846,120.588 973.033846,112.5555 C973.033846,111.2235 972.84,109.1565 971.846154,108 L978,108 L978,130.5 C978,131.328 977.310769,132 976.461538,132 M958.499228,104 C963.74673,104 968,108.253685 968,113.499226 C968,118.746315 963.74673,123 958.499228,123 C953.25327,123 949,118.746315 949,113.499226 C949,108.253685 953.25327,104 958.499228,104 M970.6,93 L975.4,93 C976.2832,93 977,93.7168 977,94.6 L977,99.4 C977,100.2832 976.2832,101 975.4,101 L970.6,101 C969.7168,101 969,100.2832 969,99.4 L969,94.6 C969,93.7168 969.7168,93 970.6,93 M976.175125,88 L938.824875,88 C935.607719,88 933,90.6015937 933,93.8110937 L933,131.188906 C933,134.398406 935.607719,137 938.824875,137 L976.175125,137 C979.392281,137 982,134.398406 982,131.188906 L982,93.8110937 C982,90.6015937 979.392281,88 976.175125,88" id="Fill-23"></path>
                </g>
            </g>
        </g>
    </g>
</svg>