<?xml version="1.0" encoding="UTF-8"?>
<svg width="49px" height="40px" viewBox="0 0 49 40" version="1.1" xmlns="http://www.w3.org/2000/svg" xmlns:xlink="http://www.w3.org/1999/xlink">
    <!-- Generator: Sketch 62 (91390) - https://sketch.com -->
    <title>Fill 1</title>
    <desc>Created with Sketch.</desc>
    <g id="Page-1" stroke="none" stroke-width="1" fill="none" fill-rule="evenodd">
        <g id="Desktop" transform="translate(-764.000000, -5988.000000)" fill="#FFFFFF">
            <g id="Design">
                <g id="Footer" transform="translate(0.000000, 5897.000000)">
                    <path d="M807.225656,97.3249375 C809.302031,96.0744088 810.896062,94.0963276 811.646375,91.7383196 C809.70475,92.8950202 807.551812,93.7348587 805.262594,94.1886176 C803.428156,92.2259181 800.815844,91 797.924844,91 C792.372531,91 787.872187,95.5206691 787.872187,101.098058 C787.872187,101.888675 787.961,102.659296 788.1325,103.399154 C779.776469,102.977697 772.369812,98.9569314 767.411625,92.8473371 C766.546469,94.3393578 766.050344,96.0744088 766.050344,97.9248221 C766.050344,101.427226 767.825063,104.518939 770.521594,106.32936 C768.873969,106.277062 767.324344,105.823303 765.969187,105.066526 C765.967656,105.109594 765.967656,105.151125 765.967656,105.194193 C765.967656,110.087099 769.432875,114.167852 774.03275,115.095366 C773.189031,115.326091 772.300906,115.449144 771.383687,115.449144 C770.735969,115.449144 770.106625,115.38608 769.492594,115.269179 C770.771187,119.280715 774.484469,122.200154 778.88375,122.281677 C775.443031,124.990386 771.108062,126.603922 766.397938,126.603922 C765.586375,126.603922 764.787063,126.556239 764,126.463949 C768.448281,129.328014 773.732625,131 779.4105,131 C797.901875,131 808.012719,115.61219 808.012719,102.268602 C808.012719,101.830225 808.003531,101.394924 807.983625,100.961161 C809.948219,99.538358 811.6525,97.7602384 813,95.7344741 C811.197719,96.5373967 809.259156,97.0803692 807.225656,97.3249375 Z" id="Fill-1"></path>
                </g>
            </g>
        </g>
    </g>
</svg>