<?xml version="1.0" encoding="UTF-8"?>
<svg width="49px" height="34px" viewBox="0 0 49 34" version="1.1" xmlns="http://www.w3.org/2000/svg" xmlns:xlink="http://www.w3.org/1999/xlink">
    <!-- Generator: Sketch 62 (91390) - https://sketch.com -->
    <title>Fill 25</title>
    <desc>Created with Sketch.</desc>
    <g id="Page-1" stroke="none" stroke-width="1" fill="none" fill-rule="evenodd">
        <g id="Desktop" transform="translate(-848.000000, -5991.000000)" fill="#FFFFFF">
            <g id="Design">
                <g id="Footer" transform="translate(0.000000, 5897.000000)">
                    <path d="M867.001504,117 L867,104 L880,110.522411 L867.001504,117 Z M896.51,101.334163 C896.51,101.334163 896.030719,98.003199 894.56225,96.5363665 C892.698719,94.610299 890.610094,94.6012352 889.653063,94.4894477 C882.796125,94 872.510719,94 872.510719,94 L872.489281,94 C872.489281,94 862.203875,94 855.346937,94.4894477 C854.388375,94.6012352 852.301281,94.610299 850.436219,96.5363665 C848.96775,98.003199 848.49,101.334163 848.49,101.334163 C848.49,101.334163 848,105.246723 848,109.157773 L848,112.82561 C848,116.73817 848.49,120.64922 848.49,120.64922 C848.49,120.64922 848.96775,123.980184 850.436219,125.447016 C852.301281,127.373084 854.74975,127.312658 855.84,127.513574 C859.76,127.885191 872.5,128 872.5,128 C872.5,128 882.796125,127.984894 889.653063,127.495446 C890.610094,127.382148 892.698719,127.373084 894.56225,125.447016 C896.030719,123.980184 896.51,120.64922 896.51,120.64922 C896.51,120.64922 897,116.73817 897,112.82561 L897,109.157773 C897,105.246723 896.51,101.334163 896.51,101.334163 L896.51,101.334163 Z" id="Fill-25"></path>
                </g>
            </g>
        </g>
    </g>
</svg>